G04 Layer_Physical_Order=2*
G04 Layer_Color=16711680*
%FSLAX23Y23*%
%MOIN*%
G70*
G01*
G75*
%ADD10C,0.010*%
%ADD11C,0.039*%
%ADD12C,0.079*%
%ADD13R,0.087X0.087*%
%ADD14C,0.087*%
%ADD15R,0.055X0.055*%
%ADD16C,0.055*%
%ADD17R,0.059X0.059*%
%ADD18C,0.059*%
%ADD19R,0.087X0.087*%
%ADD20R,0.067X0.067*%
%ADD21C,0.067*%
%ADD22C,0.059*%
%ADD23R,0.059X0.059*%
G36*
X1875Y15D02*
X15D01*
Y1385D01*
X1875D01*
Y15D01*
D02*
G37*
%LPC*%
G36*
X1020Y870D02*
X1017Y870D01*
X1005Y865D01*
X995Y857D01*
X987Y847D01*
X982Y835D01*
X982Y832D01*
X1020D01*
Y870D01*
D02*
G37*
G36*
X1773Y855D02*
X1735D01*
Y817D01*
X1738Y817D01*
X1750Y822D01*
X1760Y830D01*
X1768Y840D01*
X1773Y852D01*
X1773Y855D01*
D02*
G37*
G36*
X1715D02*
X1677D01*
X1677Y852D01*
X1682Y840D01*
X1690Y830D01*
X1700Y822D01*
X1712Y817D01*
X1715Y817D01*
Y855D01*
D02*
G37*
G36*
Y913D02*
X1712Y913D01*
X1700Y908D01*
X1690Y900D01*
X1682Y890D01*
X1677Y878D01*
X1677Y875D01*
X1715D01*
Y913D01*
D02*
G37*
G36*
X565Y854D02*
X551Y852D01*
X545Y850D01*
X223D01*
Y853D01*
X117D01*
Y747D01*
X223D01*
Y750D01*
X547D01*
X551Y748D01*
X565Y747D01*
X579Y748D01*
X592Y754D01*
X603Y762D01*
X612Y774D01*
X617Y786D01*
X619Y800D01*
X617Y814D01*
X612Y827D01*
X603Y838D01*
X592Y847D01*
X579Y852D01*
X565Y854D01*
D02*
G37*
G36*
X1040Y870D02*
Y832D01*
X1078D01*
X1078Y835D01*
X1073Y847D01*
X1065Y857D01*
X1055Y865D01*
X1043Y870D01*
X1040Y870D01*
D02*
G37*
G36*
X1430Y440D02*
X1394D01*
X1394Y438D01*
X1399Y426D01*
X1406Y416D01*
X1416Y409D01*
X1428Y404D01*
X1430Y404D01*
Y440D01*
D02*
G37*
G36*
X1750Y229D02*
X1732Y227D01*
X1714Y222D01*
X1698Y213D01*
X1683Y202D01*
X1672Y187D01*
X1663Y171D01*
X1658Y153D01*
X1656Y135D01*
X1658Y117D01*
X1663Y99D01*
X1672Y83D01*
X1683Y68D01*
X1698Y57D01*
X1714Y48D01*
X1732Y43D01*
X1750Y41D01*
X1768Y43D01*
X1786Y48D01*
X1802Y57D01*
X1817Y68D01*
X1828Y83D01*
X1837Y99D01*
X1842Y117D01*
X1844Y135D01*
X1842Y153D01*
X1837Y171D01*
X1828Y187D01*
X1817Y202D01*
X1802Y213D01*
X1786Y222D01*
X1768Y227D01*
X1750Y229D01*
D02*
G37*
G36*
X135D02*
X117Y227D01*
X99Y222D01*
X83Y213D01*
X68Y202D01*
X57Y187D01*
X48Y171D01*
X43Y153D01*
X41Y135D01*
X43Y117D01*
X48Y99D01*
X57Y83D01*
X68Y68D01*
X83Y57D01*
X99Y48D01*
X117Y43D01*
X135Y41D01*
X153Y43D01*
X171Y48D01*
X187Y57D01*
X202Y68D01*
X213Y83D01*
X222Y99D01*
X227Y117D01*
X229Y135D01*
X227Y153D01*
X222Y171D01*
X213Y187D01*
X202Y202D01*
X187Y213D01*
X171Y222D01*
X153Y227D01*
X135Y229D01*
D02*
G37*
G36*
X1765Y705D02*
X1685D01*
Y695D01*
X1545D01*
X1537Y694D01*
X1530Y691D01*
X1524Y686D01*
X1498Y660D01*
X1493Y654D01*
X1490Y646D01*
X1489Y639D01*
Y488D01*
X1481D01*
Y482D01*
X1476Y480D01*
X1474Y484D01*
X1464Y491D01*
X1452Y496D01*
X1450Y496D01*
Y450D01*
Y404D01*
X1452Y404D01*
X1464Y409D01*
X1474Y416D01*
X1476Y420D01*
X1481Y418D01*
Y412D01*
X1489D01*
Y271D01*
X1358Y140D01*
X962D01*
X885Y217D01*
Y238D01*
X886Y239D01*
X893Y248D01*
X897Y259D01*
X898Y261D01*
X903Y261D01*
X903Y256D01*
X909Y243D01*
X917Y232D01*
X928Y224D01*
X941Y218D01*
X945Y218D01*
Y270D01*
Y322D01*
X941Y322D01*
X928Y316D01*
X917Y308D01*
X909Y297D01*
X903Y284D01*
X903Y279D01*
X898Y279D01*
X897Y281D01*
X893Y292D01*
X886Y301D01*
X877Y308D01*
X866Y312D01*
X855Y314D01*
X844Y312D01*
X833Y308D01*
X824Y301D01*
X817Y292D01*
X813Y281D01*
X811Y270D01*
X813Y259D01*
X817Y248D01*
X824Y239D01*
X825Y238D01*
Y205D01*
X826Y197D01*
X829Y190D01*
X834Y184D01*
X929Y89D01*
X935Y84D01*
X942Y81D01*
X950Y80D01*
X1370D01*
X1378Y81D01*
X1385Y84D01*
X1391Y89D01*
X1540Y238D01*
X1545Y244D01*
X1546Y247D01*
X1548Y251D01*
X1549Y259D01*
Y412D01*
X1556D01*
Y488D01*
X1549D01*
Y626D01*
X1557Y635D01*
X1685D01*
Y625D01*
X1765D01*
Y705D01*
D02*
G37*
G36*
X170Y657D02*
X156Y655D01*
X143Y650D01*
X132Y641D01*
X123Y630D01*
X118Y617D01*
X116Y603D01*
X118Y589D01*
X123Y576D01*
X132Y565D01*
X143Y557D01*
X156Y551D01*
X170Y549D01*
X184Y551D01*
X189Y553D01*
X538D01*
X538Y553D01*
X551Y548D01*
X565Y546D01*
X579Y548D01*
X592Y553D01*
X603Y562D01*
X612Y573D01*
X617Y586D01*
X619Y600D01*
X617Y614D01*
X612Y626D01*
X603Y638D01*
X592Y646D01*
X579Y652D01*
X565Y653D01*
X557Y652D01*
X551Y653D01*
X189D01*
X184Y655D01*
X170Y657D01*
D02*
G37*
G36*
X1430Y496D02*
X1428Y496D01*
X1416Y491D01*
X1406Y484D01*
X1399Y474D01*
X1394Y462D01*
X1394Y460D01*
X1430D01*
Y496D01*
D02*
G37*
G36*
X1735Y913D02*
Y875D01*
X1773D01*
X1773Y878D01*
X1768Y890D01*
X1760Y900D01*
X1750Y908D01*
X1738Y913D01*
X1735Y913D01*
D02*
G37*
G36*
X945Y1257D02*
X941Y1257D01*
X928Y1251D01*
X917Y1243D01*
X909Y1232D01*
X903Y1219D01*
X898Y1220D01*
Y1248D01*
X812D01*
Y1245D01*
X655D01*
X651Y1244D01*
X648Y1242D01*
X643Y1237D01*
X641Y1234D01*
X640Y1230D01*
Y500D01*
X525D01*
X521Y499D01*
X518Y497D01*
X516Y494D01*
X515Y490D01*
Y452D01*
X512D01*
Y346D01*
X609D01*
X611Y343D01*
X614Y341D01*
X618Y340D01*
X1010D01*
Y313D01*
X1011Y310D01*
X1012Y308D01*
Y285D01*
X1007Y284D01*
X1001Y297D01*
X993Y308D01*
X982Y316D01*
X969Y322D01*
X965Y322D01*
Y270D01*
Y218D01*
X969Y218D01*
X982Y224D01*
X993Y232D01*
X1001Y243D01*
X1007Y256D01*
X1012Y255D01*
Y227D01*
X1093D01*
X1095Y226D01*
X1098Y225D01*
X1280D01*
X1284Y226D01*
X1287Y228D01*
X1372Y313D01*
X1374Y316D01*
X1375Y320D01*
Y535D01*
X1374Y539D01*
X1372Y542D01*
X1142Y772D01*
X1139Y774D01*
X1135Y775D01*
X1058D01*
X1057Y780D01*
X1065Y787D01*
X1073Y797D01*
X1078Y809D01*
X1078Y812D01*
X1030D01*
X982D01*
X982Y809D01*
X987Y797D01*
X995Y787D01*
X1003Y780D01*
X1002Y775D01*
X989D01*
X900Y864D01*
Y1162D01*
X899Y1165D01*
X898Y1167D01*
Y1190D01*
X903Y1191D01*
X909Y1178D01*
X917Y1167D01*
X928Y1159D01*
X941Y1153D01*
X945Y1153D01*
Y1205D01*
Y1257D01*
D02*
G37*
G36*
X575Y1064D02*
Y1011D01*
X627D01*
X627Y1014D01*
X623Y1025D01*
X618Y1036D01*
X610Y1046D01*
X600Y1054D01*
X589Y1060D01*
X577Y1063D01*
X575Y1064D01*
D02*
G37*
G36*
X1750Y1359D02*
X1732Y1357D01*
X1714Y1352D01*
X1698Y1343D01*
X1683Y1332D01*
X1672Y1317D01*
X1663Y1301D01*
X1658Y1283D01*
X1656Y1265D01*
X1658Y1247D01*
X1663Y1229D01*
X1672Y1213D01*
X1683Y1198D01*
X1698Y1187D01*
X1714Y1178D01*
X1732Y1173D01*
X1750Y1171D01*
X1768Y1173D01*
X1786Y1178D01*
X1802Y1187D01*
X1817Y1198D01*
X1828Y1213D01*
X1837Y1229D01*
X1842Y1247D01*
X1844Y1265D01*
X1842Y1283D01*
X1837Y1301D01*
X1828Y1317D01*
X1817Y1332D01*
X1802Y1343D01*
X1786Y1352D01*
X1768Y1357D01*
X1750Y1359D01*
D02*
G37*
G36*
X135D02*
X117Y1357D01*
X99Y1352D01*
X83Y1343D01*
X68Y1332D01*
X57Y1317D01*
X48Y1301D01*
X43Y1283D01*
X41Y1265D01*
X43Y1247D01*
X48Y1229D01*
X57Y1213D01*
X68Y1198D01*
X83Y1187D01*
X99Y1178D01*
X117Y1173D01*
X135Y1171D01*
X153Y1173D01*
X171Y1178D01*
X187Y1187D01*
X202Y1198D01*
X213Y1213D01*
X222Y1229D01*
X227Y1247D01*
X229Y1265D01*
X227Y1283D01*
X222Y1301D01*
X213Y1317D01*
X202Y1332D01*
X187Y1343D01*
X171Y1352D01*
X153Y1357D01*
X135Y1359D01*
D02*
G37*
G36*
X1524Y1101D02*
Y1065D01*
X1561D01*
X1560Y1067D01*
X1556Y1079D01*
X1548Y1089D01*
X1538Y1096D01*
X1527Y1101D01*
X1524Y1101D01*
D02*
G37*
G36*
X627Y991D02*
X575D01*
Y939D01*
X577Y939D01*
X589Y943D01*
X600Y949D01*
X610Y956D01*
X618Y966D01*
X623Y977D01*
X627Y989D01*
X627Y991D01*
D02*
G37*
G36*
X555D02*
X503D01*
X503Y989D01*
X507Y977D01*
X512Y966D01*
X520Y956D01*
X530Y949D01*
X541Y943D01*
X553Y939D01*
X555Y939D01*
Y991D01*
D02*
G37*
G36*
X965Y1257D02*
Y1205D01*
Y1153D01*
X969Y1153D01*
X982Y1159D01*
X993Y1167D01*
X1001Y1178D01*
X1007Y1191D01*
X1007Y1196D01*
X1012Y1196D01*
X1013Y1194D01*
X1017Y1183D01*
X1024Y1174D01*
X1033Y1167D01*
X1044Y1163D01*
X1055Y1161D01*
X1066Y1163D01*
X1077Y1167D01*
X1086Y1174D01*
X1087Y1175D01*
X1313D01*
X1398Y1090D01*
Y1017D01*
X1406D01*
Y869D01*
X1407Y862D01*
X1410Y854D01*
X1414Y848D01*
X1519Y744D01*
X1525Y739D01*
X1532Y736D01*
X1540Y735D01*
X1699D01*
X1705Y730D01*
X1715Y726D01*
X1725Y725D01*
X1735Y726D01*
X1745Y730D01*
X1753Y737D01*
X1760Y745D01*
X1764Y755D01*
X1765Y765D01*
X1764Y775D01*
X1760Y785D01*
X1753Y793D01*
X1745Y800D01*
X1735Y804D01*
X1725Y805D01*
X1715Y804D01*
X1705Y800D01*
X1699Y795D01*
X1552D01*
X1466Y882D01*
Y1017D01*
X1473D01*
Y1023D01*
X1478Y1025D01*
X1481Y1021D01*
X1491Y1014D01*
X1502Y1009D01*
X1505Y1009D01*
Y1055D01*
Y1101D01*
X1502Y1101D01*
X1491Y1096D01*
X1481Y1089D01*
X1478Y1085D01*
X1473Y1087D01*
Y1093D01*
X1466D01*
Y1094D01*
X1465Y1102D01*
X1462Y1109D01*
X1457Y1116D01*
X1346Y1226D01*
X1340Y1231D01*
X1333Y1234D01*
X1325Y1235D01*
X1087D01*
X1086Y1236D01*
X1077Y1243D01*
X1066Y1247D01*
X1055Y1249D01*
X1044Y1247D01*
X1033Y1243D01*
X1024Y1236D01*
X1017Y1227D01*
X1013Y1216D01*
X1012Y1214D01*
X1007Y1214D01*
X1007Y1219D01*
X1001Y1232D01*
X993Y1243D01*
X982Y1251D01*
X969Y1257D01*
X965Y1257D01*
D02*
G37*
G36*
X555Y1064D02*
X553Y1063D01*
X541Y1060D01*
X530Y1054D01*
X520Y1046D01*
X512Y1036D01*
X507Y1025D01*
X503Y1014D01*
X503Y1011D01*
X555D01*
Y1064D01*
D02*
G37*
G36*
X1561Y1045D02*
X1524D01*
Y1009D01*
X1527Y1009D01*
X1538Y1014D01*
X1548Y1021D01*
X1556Y1031D01*
X1560Y1043D01*
X1561Y1045D01*
D02*
G37*
%LPD*%
G36*
X1762Y197D02*
X1774Y194D01*
X1785Y188D01*
X1795Y180D01*
X1803Y170D01*
X1809Y159D01*
X1812Y147D01*
X1814Y135D01*
X1812Y123D01*
X1809Y111D01*
X1803Y100D01*
X1795Y90D01*
X1785Y82D01*
X1774Y76D01*
X1762Y73D01*
X1750Y71D01*
X1738Y73D01*
X1726Y76D01*
X1715Y82D01*
X1705Y90D01*
X1697Y100D01*
X1691Y111D01*
X1688Y123D01*
X1686Y135D01*
X1688Y147D01*
X1691Y159D01*
X1697Y170D01*
X1705Y180D01*
X1715Y188D01*
X1726Y194D01*
X1738Y197D01*
X1750Y199D01*
X1762Y197D01*
D02*
G37*
G36*
X147D02*
X159Y194D01*
X170Y188D01*
X180Y180D01*
X188Y170D01*
X194Y159D01*
X197Y147D01*
X199Y135D01*
X197Y123D01*
X194Y111D01*
X188Y100D01*
X180Y90D01*
X170Y82D01*
X159Y76D01*
X147Y73D01*
X135Y71D01*
X123Y73D01*
X111Y76D01*
X100Y82D01*
X90Y90D01*
X82Y100D01*
X76Y111D01*
X73Y123D01*
X71Y135D01*
X73Y147D01*
X76Y159D01*
X82Y170D01*
X90Y180D01*
X100Y188D01*
X111Y194D01*
X123Y197D01*
X135Y199D01*
X147Y197D01*
D02*
G37*
G36*
X812Y1215D02*
X855D01*
Y1205D01*
X865D01*
Y1162D01*
X890D01*
Y860D01*
X985Y765D01*
X1135D01*
X1365Y535D01*
Y320D01*
X1280Y235D01*
X1098D01*
Y260D01*
X1055D01*
Y270D01*
X1045D01*
Y313D01*
X1020D01*
Y350D01*
X618D01*
Y389D01*
X565D01*
Y399D01*
X555D01*
Y452D01*
X525D01*
Y490D01*
X645D01*
X650Y495D01*
Y1230D01*
X655Y1235D01*
X812D01*
Y1215D01*
D02*
G37*
%LPC*%
G36*
X1098Y313D02*
X1065D01*
Y280D01*
X1098D01*
Y313D01*
D02*
G37*
G36*
X1070Y615D02*
X1040D01*
Y585D01*
X1070D01*
Y615D01*
D02*
G37*
G36*
X1020Y665D02*
X990D01*
Y635D01*
X1020D01*
Y665D01*
D02*
G37*
G36*
X1070D02*
X1040D01*
Y635D01*
X1070D01*
Y665D01*
D02*
G37*
G36*
X618Y452D02*
X575D01*
Y409D01*
X618D01*
Y452D01*
D02*
G37*
G36*
X845Y1195D02*
X812D01*
Y1162D01*
X845D01*
Y1195D01*
D02*
G37*
G36*
X1020Y615D02*
X990D01*
Y585D01*
X1020D01*
Y615D01*
D02*
G37*
%LPD*%
G36*
X1762Y1327D02*
X1774Y1324D01*
X1785Y1318D01*
X1795Y1310D01*
X1803Y1300D01*
X1809Y1289D01*
X1812Y1277D01*
X1814Y1265D01*
X1812Y1253D01*
X1809Y1241D01*
X1803Y1230D01*
X1795Y1220D01*
X1785Y1212D01*
X1774Y1206D01*
X1762Y1203D01*
X1750Y1201D01*
X1738Y1203D01*
X1726Y1206D01*
X1715Y1212D01*
X1705Y1220D01*
X1697Y1230D01*
X1691Y1241D01*
X1688Y1253D01*
X1686Y1265D01*
X1688Y1277D01*
X1691Y1289D01*
X1697Y1300D01*
X1705Y1310D01*
X1715Y1318D01*
X1726Y1324D01*
X1738Y1327D01*
X1750Y1329D01*
X1762Y1327D01*
D02*
G37*
G36*
X147D02*
X159Y1324D01*
X170Y1318D01*
X180Y1310D01*
X188Y1300D01*
X194Y1289D01*
X197Y1277D01*
X199Y1265D01*
X197Y1253D01*
X194Y1241D01*
X188Y1230D01*
X180Y1220D01*
X170Y1212D01*
X159Y1206D01*
X147Y1203D01*
X135Y1201D01*
X123Y1203D01*
X111Y1206D01*
X100Y1212D01*
X90Y1220D01*
X82Y1230D01*
X76Y1241D01*
X73Y1253D01*
X71Y1265D01*
X73Y1277D01*
X76Y1289D01*
X82Y1300D01*
X90Y1310D01*
X100Y1318D01*
X111Y1324D01*
X123Y1327D01*
X135Y1329D01*
X147Y1327D01*
D02*
G37*
D10*
X1829Y135D02*
G03*
X1829Y135I-79J0D01*
G01*
X214D02*
G03*
X214Y135I-79J0D01*
G01*
X1829Y1265D02*
G03*
X1829Y1265I-79J0D01*
G01*
X214D02*
G03*
X214Y1265I-79J0D01*
G01*
D11*
X551Y603D02*
X565Y590D01*
X555Y800D02*
X565Y790D01*
Y1230D02*
X650Y1315D01*
X565Y1001D02*
Y1230D01*
X650Y1315D02*
X895D01*
X1148Y822D02*
X1440Y530D01*
X1320Y185D02*
X1440Y305D01*
X1519Y639D02*
X1545Y665D01*
X1725D01*
X955Y897D02*
X1030Y822D01*
X955Y897D02*
Y1205D01*
X1030Y822D02*
X1148D01*
X950Y110D02*
X1370D01*
X955Y1255D02*
X1005Y1305D01*
X1350D01*
X1514Y1141D01*
Y1055D02*
Y1141D01*
Y911D02*
Y1055D01*
Y911D02*
X1560Y865D01*
X1725D01*
X1540Y765D02*
X1725D01*
X1436Y869D02*
X1540Y765D01*
X1436Y869D02*
Y1055D01*
X565Y399D02*
X571Y405D01*
X910Y625D02*
X1030D01*
X855Y680D02*
X910Y625D01*
X855Y680D02*
Y1205D01*
X955D02*
Y1255D01*
X895Y1315D02*
X955Y1255D01*
X1225Y270D02*
X1310Y355D01*
Y520D01*
X1205Y625D02*
X1310Y520D01*
X1030Y625D02*
X1205D01*
X1030Y505D02*
Y625D01*
X924Y399D02*
X1030Y505D01*
X1055Y1205D02*
X1325D01*
X1436Y1094D01*
Y1055D02*
Y1094D01*
X565Y399D02*
X924D01*
X1370Y110D02*
X1519Y259D01*
X1440Y450D02*
Y530D01*
Y305D02*
Y450D01*
X1519D02*
Y639D01*
Y259D02*
Y450D01*
X855Y205D02*
Y270D01*
Y205D02*
X950Y110D01*
X955Y225D02*
Y270D01*
Y225D02*
X995Y185D01*
X1320D01*
X1055Y270D02*
X1225D01*
D12*
X170Y603D02*
X551D01*
X170Y800D02*
X555D01*
D13*
X170D02*
D03*
D14*
Y603D02*
D03*
X565Y1001D02*
D03*
Y800D02*
D03*
Y600D02*
D03*
D15*
X1436Y1055D02*
D03*
X1519Y450D02*
D03*
D16*
X1514Y1055D02*
D03*
X1440Y450D02*
D03*
D17*
X1725Y665D02*
D03*
D18*
Y765D02*
D03*
Y865D02*
D03*
D19*
X565Y399D02*
D03*
D20*
X1055Y270D02*
D03*
X855Y1205D02*
D03*
D21*
X955Y270D02*
D03*
X855D02*
D03*
X955Y1205D02*
D03*
X1055D02*
D03*
D22*
X1030Y822D02*
D03*
D23*
Y625D02*
D03*
M02*
